<svg xmlns="http://www.w3.org/2000/svg" viewBox="0 0 2438 500" fill="none" width="1024px" height="210.008203px" preserveAspectRatio="none" style="width: 1024px; height: 210.008203px;">
<path d="M332.13 407.97L203.64 91.27H128.54L0.5 407.97H68.36L98.78 324.72H230.55L260.64 407.97H332.13ZM118.3 271.34L152.52 177.69L157.04 165.47C158.24 161.25 159.68 157.03 161.34 152.8C162.99 148.58 164.28 144.36 165.19 140.13C168.5 150.99 171.22 159.58 173.33 165.92C174.84 169.54 176.19 173.46 177.4 177.68L211.26 271.33H118.3V271.34Z" fill="#050505"/>
<path d="M349.14 91.27H449.13L524.69 313.87C528.91 326.54 531.77 336.94 533.29 345.09C533.89 342.98 534.34 341.02 534.65 339.21C535.56 335.29 536.53 331.29 537.59 327.22C538.64 323.15 539.92 318.7 541.44 313.87L613.83 91.27H713.82V407.97H652.74V198.95C652.74 178.75 653.19 163.51 654.1 153.25L571.3 407.97H495.29L407.97 153.25C408.88 167.73 409.33 182.96 409.33 198.95V407.97H349.16V91.27H349.14Z" fill="#050505"/>
<path d="M739.31 91.27H874.59C907.46 91.27 934.01 97.76 954.22 110.72C974.42 123.69 984.53 144.05 984.53 171.8C984.53 189.9 978.95 204.76 967.79 216.36C956.63 227.98 942 236.2 923.9 241.02C945.31 245.54 962.36 254.3 975.03 267.26C987.7 280.23 994.03 296.67 994.03 316.57C994.03 337.99 988.45 355.48 977.29 369.05C966.13 382.62 951.05 392.51 932.05 398.69C913.05 404.87 891.78 407.96 868.26 407.96H739.32V91.27H739.31ZM896.98 213.88C904.67 210.87 910.33 206.57 913.95 200.99C917.57 195.41 919.38 188.4 919.38 179.95C919.38 168.49 915.23 159.75 906.94 153.71C898.64 147.68 885.6 144.66 867.81 144.66H801.76V218.41H867.36C879.42 218.41 889.3 216.91 896.99 213.89L896.98 213.88ZM914.17 343.73C923.67 336.49 928.42 325.94 928.42 312.06C928.42 296.98 923.74 286.12 914.39 279.48C905.04 272.85 890.56 269.53 870.96 269.53H801.74V354.59H870.96C890.26 354.59 904.67 350.97 914.17 343.73Z" fill="#050505"/>
<path d="M1014.44 91.27V407.97H1078.23V91.27H1014.44Z" fill="#050505"/>
<path d="M1103.74 91.27H1326.34V145.11H1167.54V217.95H1319.56V271.79H1167.54V354.13H1333.13V407.97H1103.75V91.27H1103.74Z" fill="#050505"/>
<path d="M1358.63 91.27H1452.74L1583.04 322.91C1581.53 310.85 1580.78 295.16 1580.78 275.86V91.27H1644.57V407.97H1561.77L1419.71 154.16C1420.91 165.92 1421.52 180.71 1421.52 198.5L1421.97 407.98H1358.63V91.27Z" fill="#050505"/>
<path d="M1670.08 145.11V91.27H1942.9V145.11H1838.84V407.97H1775.05V145.11H1670.08Z" fill="#050505"/>
<path d="M2404.12 124.49C2381.89 85.95 2351.96 55.56 2314.32 33.33C2276.67 11.11 2235.41 0 2190.51 0C2145.61 0 2104.22 11.22 2066.36 33.67C2028.49 56.12 1998.44 86.51 1976.22 124.83C1953.99 163.16 1942.89 204.76 1942.89 249.66C1942.89 294.56 1954 335.61 1976.22 374.15C1998.44 412.7 2028.26 443.31 2065.68 465.99C2103.1 488.67 2143.79 500 2187.79 500C2231.79 500 2275.55 488.88 2313.64 466.67C2351.74 444.45 2381.89 414.29 2404.12 376.2C2426.34 338.1 2437.45 295.93 2437.45 249.67C2437.45 203.41 2426.33 163.05 2404.12 124.5V124.49ZM2370.22 358.56C2351.36 391.7 2326.26 418.07 2294.91 437.69C2263.56 457.32 2229.28 467.12 2192.08 467.12C2154.88 467.12 2117.92 457.44 2085.81 438.07C2053.7 418.71 2028.34 392.46 2009.74 359.32C1991.13 326.19 1981.83 289.75 1981.83 249.99C1981.83 210.23 1991.12 174.43 2009.74 141.05C2028.34 107.67 2053.44 81.3 2085.05 61.92C2116.65 42.56 2151.3 32.87 2189.03 32.87C2226.76 32.87 2262.29 42.56 2294.15 61.92C2326 81.3 2351.36 107.67 2370.22 141.05C2389.07 174.44 2398.51 210.75 2398.51 249.99C2398.51 289.23 2389.07 325.43 2370.22 358.55V358.56Z" fill="#050505"/>
<path d="M2241.88 253.23C2257.75 250.06 2270.9 242.46 2281.34 230.44C2291.77 218.43 2296.99 202.89 2296.99 183.84C2296.99 161.17 2288.25 143.82 2270.8 131.8C2253.34 119.79 2227.15 113.77 2192.23 113.77H2093.59V381.12H2153.45V279.76H2187.46C2202.87 279.76 2213.76 282.94 2220.11 289.28C2226.46 295.64 2229.63 306.06 2229.63 320.57V381.12H2291.54V312.41C2291.54 295.64 2286.78 282.03 2277.25 271.59C2267.73 261.16 2255.93 255.04 2241.88 253.22V253.23ZM2225.55 216.83C2217.83 222.05 2206.73 224.65 2192.22 224.65H2153.44V163.43H2193.58C2208.99 163.43 2220.11 165.81 2226.91 170.57C2233.71 175.33 2237.11 183.15 2237.11 194.04C2237.11 204.02 2233.25 211.62 2225.54 216.83H2225.55Z" fill="#050505"/>
<script xmlns="" id="bw-fido2-page-script"/></svg>